<mxfile host="app.diagrams.net" agent="Mozilla/5.0 (Windows NT 10.0; Win64; x64) AppleWebKit/537.36 (KHTML, like Gecko) Chrome/129.0.0.0 Safari/537.36" version="24.7.16">
  <diagram name="Сторінка-1" id="KvSCIiQRSf2_15R9NHVk">
    <mxGraphModel dx="2266" dy="1044" grid="1" gridSize="10" guides="1" tooltips="1" connect="1" arrows="1" fold="1" page="1" pageScale="1" pageWidth="827" pageHeight="1169" math="0" shadow="0">
      <root>
        <mxCell id="0" />
        <mxCell id="1" parent="0" />
        <mxCell id="vKtuIFW7AEC2cDn7nmXN-3" value="" style="edgeStyle=orthogonalEdgeStyle;rounded=0;orthogonalLoop=1;jettySize=auto;html=1;endArrow=none;endFill=0;" edge="1" parent="1" source="vKtuIFW7AEC2cDn7nmXN-1" target="vKtuIFW7AEC2cDn7nmXN-2">
          <mxGeometry relative="1" as="geometry" />
        </mxCell>
        <mxCell id="vKtuIFW7AEC2cDn7nmXN-1" value="Початок" style="rounded=1;whiteSpace=wrap;html=1;" vertex="1" parent="1">
          <mxGeometry x="370" y="60" width="104" height="50" as="geometry" />
        </mxCell>
        <mxCell id="vKtuIFW7AEC2cDn7nmXN-5" value="" style="edgeStyle=orthogonalEdgeStyle;shape=connector;rounded=0;orthogonalLoop=1;jettySize=auto;html=1;strokeColor=default;align=center;verticalAlign=middle;fontFamily=Helvetica;fontSize=11;fontColor=default;labelBackgroundColor=default;endArrow=none;endFill=0;" edge="1" parent="1" source="vKtuIFW7AEC2cDn7nmXN-2" target="vKtuIFW7AEC2cDn7nmXN-4">
          <mxGeometry relative="1" as="geometry" />
        </mxCell>
        <mxCell id="vKtuIFW7AEC2cDn7nmXN-2" value="a, b, c, xp, xk, dx" style="shape=parallelogram;perimeter=parallelogramPerimeter;whiteSpace=wrap;html=1;fixedSize=1;" vertex="1" parent="1">
          <mxGeometry x="362" y="140" width="120" height="60" as="geometry" />
        </mxCell>
        <mxCell id="vKtuIFW7AEC2cDn7nmXN-7" value="" style="edgeStyle=orthogonalEdgeStyle;shape=connector;rounded=0;orthogonalLoop=1;jettySize=auto;html=1;strokeColor=default;align=center;verticalAlign=middle;fontFamily=Helvetica;fontSize=11;fontColor=default;labelBackgroundColor=default;endArrow=none;endFill=0;" edge="1" parent="1" source="vKtuIFW7AEC2cDn7nmXN-4" target="vKtuIFW7AEC2cDn7nmXN-6">
          <mxGeometry relative="1" as="geometry" />
        </mxCell>
        <mxCell id="vKtuIFW7AEC2cDn7nmXN-4" value="ввід заголовку&amp;nbsp;" style="shape=parallelogram;perimeter=parallelogramPerimeter;whiteSpace=wrap;html=1;fixedSize=1;fontFamily=Helvetica;fontSize=11;fontColor=default;labelBackgroundColor=default;" vertex="1" parent="1">
          <mxGeometry x="362" y="230" width="120" height="60" as="geometry" />
        </mxCell>
        <mxCell id="vKtuIFW7AEC2cDn7nmXN-9" value="" style="edgeStyle=orthogonalEdgeStyle;shape=connector;rounded=0;orthogonalLoop=1;jettySize=auto;html=1;strokeColor=default;align=center;verticalAlign=middle;fontFamily=Helvetica;fontSize=11;fontColor=default;labelBackgroundColor=default;endArrow=none;endFill=0;" edge="1" parent="1" source="vKtuIFW7AEC2cDn7nmXN-6" target="vKtuIFW7AEC2cDn7nmXN-8">
          <mxGeometry relative="1" as="geometry" />
        </mxCell>
        <mxCell id="vKtuIFW7AEC2cDn7nmXN-6" value="x=xp" style="whiteSpace=wrap;html=1;fontSize=11;labelBackgroundColor=default;" vertex="1" parent="1">
          <mxGeometry x="362" y="320" width="120" height="60" as="geometry" />
        </mxCell>
        <mxCell id="vKtuIFW7AEC2cDn7nmXN-11" value="" style="edgeStyle=orthogonalEdgeStyle;shape=connector;rounded=0;orthogonalLoop=1;jettySize=auto;html=1;strokeColor=default;align=center;verticalAlign=middle;fontFamily=Helvetica;fontSize=11;fontColor=default;labelBackgroundColor=default;endArrow=none;endFill=0;" edge="1" parent="1" source="vKtuIFW7AEC2cDn7nmXN-8" target="vKtuIFW7AEC2cDn7nmXN-10">
          <mxGeometry relative="1" as="geometry">
            <Array as="points">
              <mxPoint x="554" y="450" />
            </Array>
          </mxGeometry>
        </mxCell>
        <mxCell id="vKtuIFW7AEC2cDn7nmXN-33" style="edgeStyle=orthogonalEdgeStyle;shape=connector;rounded=0;orthogonalLoop=1;jettySize=auto;html=1;strokeColor=default;align=center;verticalAlign=middle;fontFamily=Helvetica;fontSize=11;fontColor=default;labelBackgroundColor=default;endArrow=none;endFill=0;" edge="1" parent="1" source="vKtuIFW7AEC2cDn7nmXN-8" target="vKtuIFW7AEC2cDn7nmXN-34">
          <mxGeometry relative="1" as="geometry">
            <mxPoint x="410" y="980" as="targetPoint" />
            <Array as="points">
              <mxPoint x="250" y="450" />
              <mxPoint x="250" y="850" />
              <mxPoint x="410" y="850" />
            </Array>
          </mxGeometry>
        </mxCell>
        <mxCell id="vKtuIFW7AEC2cDn7nmXN-8" value="x &amp;lt;= xk" style="rhombus;whiteSpace=wrap;html=1;fontSize=11;labelBackgroundColor=default;" vertex="1" parent="1">
          <mxGeometry x="342" y="410" width="160" height="80" as="geometry" />
        </mxCell>
        <mxCell id="vKtuIFW7AEC2cDn7nmXN-13" value="" style="edgeStyle=orthogonalEdgeStyle;shape=connector;rounded=0;orthogonalLoop=1;jettySize=auto;html=1;strokeColor=default;align=center;verticalAlign=middle;fontFamily=Helvetica;fontSize=11;fontColor=default;labelBackgroundColor=default;endArrow=none;endFill=0;entryX=0.5;entryY=0;entryDx=0;entryDy=0;" edge="1" parent="1" source="vKtuIFW7AEC2cDn7nmXN-10" target="vKtuIFW7AEC2cDn7nmXN-12">
          <mxGeometry relative="1" as="geometry">
            <Array as="points">
              <mxPoint x="442" y="530" />
            </Array>
          </mxGeometry>
        </mxCell>
        <mxCell id="vKtuIFW7AEC2cDn7nmXN-15" value="" style="edgeStyle=orthogonalEdgeStyle;shape=connector;rounded=0;orthogonalLoop=1;jettySize=auto;html=1;strokeColor=default;align=center;verticalAlign=middle;fontFamily=Helvetica;fontSize=11;fontColor=default;labelBackgroundColor=default;endArrow=none;endFill=0;" edge="1" parent="1" source="vKtuIFW7AEC2cDn7nmXN-10" target="vKtuIFW7AEC2cDn7nmXN-14">
          <mxGeometry relative="1" as="geometry">
            <Array as="points">
              <mxPoint x="680" y="530" />
            </Array>
          </mxGeometry>
        </mxCell>
        <mxCell id="vKtuIFW7AEC2cDn7nmXN-10" value="&lt;span style=&quot;font-size: 9.5pt; line-height: 106%; font-family: &amp;quot;Cascadia Mono&amp;quot;; background-image: initial; background-position: initial; background-size: initial; background-repeat: initial; background-attachment: initial; background-origin: initial; background-clip: initial;&quot;&gt;x &amp;lt; 0 &amp;amp;&amp;amp; b != 0&lt;/span&gt;" style="rhombus;whiteSpace=wrap;html=1;fontSize=11;labelBackgroundColor=default;" vertex="1" parent="1">
          <mxGeometry x="474" y="490" width="160" height="80" as="geometry" />
        </mxCell>
        <mxCell id="vKtuIFW7AEC2cDn7nmXN-17" style="edgeStyle=orthogonalEdgeStyle;shape=connector;rounded=0;orthogonalLoop=1;jettySize=auto;html=1;entryX=0.5;entryY=0;entryDx=0;entryDy=0;strokeColor=default;align=center;verticalAlign=middle;fontFamily=Helvetica;fontSize=11;fontColor=default;labelBackgroundColor=default;endArrow=none;endFill=0;" edge="1" parent="1" source="vKtuIFW7AEC2cDn7nmXN-12" target="vKtuIFW7AEC2cDn7nmXN-16">
          <mxGeometry relative="1" as="geometry">
            <Array as="points">
              <mxPoint x="554" y="600" />
            </Array>
          </mxGeometry>
        </mxCell>
        <mxCell id="vKtuIFW7AEC2cDn7nmXN-22" style="edgeStyle=orthogonalEdgeStyle;shape=connector;rounded=0;orthogonalLoop=1;jettySize=auto;html=1;entryX=0.5;entryY=0;entryDx=0;entryDy=0;strokeColor=default;align=center;verticalAlign=middle;fontFamily=Helvetica;fontSize=11;fontColor=default;labelBackgroundColor=default;endArrow=none;endFill=0;" edge="1" parent="1" source="vKtuIFW7AEC2cDn7nmXN-12" target="vKtuIFW7AEC2cDn7nmXN-21">
          <mxGeometry relative="1" as="geometry">
            <Array as="points">
              <mxPoint x="328" y="600" />
            </Array>
          </mxGeometry>
        </mxCell>
        <mxCell id="vKtuIFW7AEC2cDn7nmXN-12" value="&lt;span style=&quot;font-size: 9.5pt; line-height: 106%; font-family: &amp;quot;Cascadia Mono&amp;quot;; background-image: initial; background-position: initial; background-size: initial; background-repeat: initial; background-attachment: initial; background-origin: initial; background-clip: initial;&quot;&gt;x &amp;lt; 0 &amp;amp;&amp;amp; b != 0&lt;/span&gt;" style="rhombus;whiteSpace=wrap;html=1;fontSize=11;labelBackgroundColor=default;" vertex="1" parent="1">
          <mxGeometry x="362" y="560" width="160" height="80" as="geometry" />
        </mxCell>
        <mxCell id="vKtuIFW7AEC2cDn7nmXN-14" value="&lt;span style=&quot;font-size: 9.5pt; line-height: 106%; font-family: &amp;quot;Cascadia Mono&amp;quot;; background-image: initial; background-position: initial; background-size: initial; background-repeat: initial; background-attachment: initial; background-origin: initial; background-clip: initial;&quot;&gt;F = a - (x / 10 + b)&lt;/span&gt;" style="whiteSpace=wrap;html=1;fontSize=11;labelBackgroundColor=default;" vertex="1" parent="1">
          <mxGeometry x="620" y="570" width="120" height="60" as="geometry" />
        </mxCell>
        <mxCell id="vKtuIFW7AEC2cDn7nmXN-16" value="&lt;span style=&quot;font-size: 9.5pt; line-height: 106%; font-family: &amp;quot;Cascadia Mono&amp;quot;; background-image: initial; background-position: initial; background-size: initial; background-repeat: initial; background-attachment: initial; background-origin: initial; background-clip: initial;&quot;&gt;F = (x - a) / (x - c)&lt;/span&gt;" style="whiteSpace=wrap;html=1;fontSize=11;labelBackgroundColor=default;" vertex="1" parent="1">
          <mxGeometry x="494" y="650" width="116" height="60" as="geometry" />
        </mxCell>
        <mxCell id="vKtuIFW7AEC2cDn7nmXN-18" value="+" style="text;html=1;align=center;verticalAlign=bottom;resizable=0;points=[];autosize=1;strokeColor=none;fillColor=none;fontFamily=Helvetica;fontSize=16;fontColor=default;labelBackgroundColor=default;" vertex="1" parent="1">
          <mxGeometry x="522" y="570" width="30" height="30" as="geometry" />
        </mxCell>
        <mxCell id="vKtuIFW7AEC2cDn7nmXN-19" value="+" style="text;html=1;align=center;verticalAlign=bottom;resizable=0;points=[];autosize=1;strokeColor=none;fillColor=none;fontFamily=Helvetica;fontSize=16;fontColor=default;labelBackgroundColor=default;" vertex="1" parent="1">
          <mxGeometry x="650" y="500" width="30" height="30" as="geometry" />
        </mxCell>
        <mxCell id="vKtuIFW7AEC2cDn7nmXN-20" value="+" style="text;html=1;align=center;verticalAlign=bottom;resizable=0;points=[];autosize=1;strokeColor=none;fillColor=none;fontFamily=Helvetica;fontSize=16;fontColor=default;labelBackgroundColor=default;" vertex="1" parent="1">
          <mxGeometry x="522" y="420" width="30" height="30" as="geometry" />
        </mxCell>
        <mxCell id="vKtuIFW7AEC2cDn7nmXN-21" value="&lt;span style=&quot;font-size: 9.5pt; line-height: 106%; font-family: &amp;quot;Cascadia Mono&amp;quot;; background-image: initial; background-position: initial; background-size: initial; background-repeat: initial; background-attachment: initial; background-origin: initial; background-clip: initial;&quot;&gt;F = (x - a) / (x - c)&lt;/span&gt;" style="whiteSpace=wrap;html=1;fontSize=11;labelBackgroundColor=default;" vertex="1" parent="1">
          <mxGeometry x="270" y="650" width="116" height="60" as="geometry" />
        </mxCell>
        <mxCell id="vKtuIFW7AEC2cDn7nmXN-23" value="-" style="text;html=1;align=center;verticalAlign=bottom;resizable=0;points=[];autosize=1;strokeColor=none;fillColor=none;fontFamily=Helvetica;fontSize=17;fontColor=default;labelBackgroundColor=default;" vertex="1" parent="1">
          <mxGeometry x="325" y="570" width="30" height="30" as="geometry" />
        </mxCell>
        <mxCell id="vKtuIFW7AEC2cDn7nmXN-24" value="-" style="text;html=1;align=center;verticalAlign=bottom;resizable=0;points=[];autosize=1;strokeColor=none;fillColor=none;fontFamily=Helvetica;fontSize=17;fontColor=default;labelBackgroundColor=default;" vertex="1" parent="1">
          <mxGeometry x="444" y="500" width="30" height="30" as="geometry" />
        </mxCell>
        <mxCell id="vKtuIFW7AEC2cDn7nmXN-25" value="-" style="text;html=1;align=center;verticalAlign=bottom;resizable=0;points=[];autosize=1;strokeColor=none;fillColor=none;fontFamily=Helvetica;fontSize=17;fontColor=default;labelBackgroundColor=default;" vertex="1" parent="1">
          <mxGeometry x="300" y="420" width="30" height="30" as="geometry" />
        </mxCell>
        <mxCell id="vKtuIFW7AEC2cDn7nmXN-26" value="" style="endArrow=none;html=1;rounded=0;strokeColor=default;align=center;verticalAlign=middle;fontFamily=Helvetica;fontSize=11;fontColor=default;labelBackgroundColor=default;edgeStyle=orthogonalEdgeStyle;entryX=0.5;entryY=1;entryDx=0;entryDy=0;exitX=0.431;exitY=1;exitDx=0;exitDy=0;exitPerimeter=0;" edge="1" parent="1" source="vKtuIFW7AEC2cDn7nmXN-21" target="vKtuIFW7AEC2cDn7nmXN-16">
          <mxGeometry width="50" height="50" relative="1" as="geometry">
            <mxPoint x="320" y="780" as="sourcePoint" />
            <mxPoint x="552" y="730" as="targetPoint" />
            <Array as="points">
              <mxPoint x="320" y="760" />
              <mxPoint x="552" y="760" />
            </Array>
          </mxGeometry>
        </mxCell>
        <mxCell id="vKtuIFW7AEC2cDn7nmXN-27" value="" style="endArrow=none;html=1;rounded=0;strokeColor=default;align=center;verticalAlign=middle;fontFamily=Helvetica;fontSize=11;fontColor=default;labelBackgroundColor=default;edgeStyle=orthogonalEdgeStyle;" edge="1" parent="1">
          <mxGeometry width="50" height="50" relative="1" as="geometry">
            <mxPoint x="440" y="760" as="sourcePoint" />
            <mxPoint x="679.52" y="630" as="targetPoint" />
            <Array as="points">
              <mxPoint x="440" y="800" />
              <mxPoint x="680" y="800" />
            </Array>
          </mxGeometry>
        </mxCell>
        <mxCell id="vKtuIFW7AEC2cDn7nmXN-28" value="" style="endArrow=none;html=1;rounded=0;strokeColor=default;align=center;verticalAlign=middle;fontFamily=Helvetica;fontSize=11;fontColor=default;labelBackgroundColor=default;edgeStyle=orthogonalEdgeStyle;" edge="1" parent="1">
          <mxGeometry width="50" height="50" relative="1" as="geometry">
            <mxPoint x="560" y="870" as="sourcePoint" />
            <mxPoint x="560" y="800" as="targetPoint" />
          </mxGeometry>
        </mxCell>
        <mxCell id="vKtuIFW7AEC2cDn7nmXN-31" value="" style="edgeStyle=orthogonalEdgeStyle;shape=connector;rounded=0;orthogonalLoop=1;jettySize=auto;html=1;strokeColor=default;align=center;verticalAlign=middle;fontFamily=Helvetica;fontSize=11;fontColor=default;labelBackgroundColor=default;endArrow=none;endFill=0;" edge="1" parent="1" source="vKtuIFW7AEC2cDn7nmXN-29" target="vKtuIFW7AEC2cDn7nmXN-30">
          <mxGeometry relative="1" as="geometry" />
        </mxCell>
        <mxCell id="vKtuIFW7AEC2cDn7nmXN-29" value="x , F" style="shape=document;whiteSpace=wrap;html=1;boundedLbl=1;fontFamily=Helvetica;fontSize=11;fontColor=default;labelBackgroundColor=default;" vertex="1" parent="1">
          <mxGeometry x="508" y="870" width="102" height="60" as="geometry" />
        </mxCell>
        <mxCell id="vKtuIFW7AEC2cDn7nmXN-30" value="x += dx" style="rounded=0;whiteSpace=wrap;html=1;fontFamily=Helvetica;fontSize=11;fontColor=default;labelBackgroundColor=default;" vertex="1" parent="1">
          <mxGeometry x="513" y="950" width="92" height="40" as="geometry" />
        </mxCell>
        <mxCell id="vKtuIFW7AEC2cDn7nmXN-32" value="" style="endArrow=classic;html=1;rounded=0;strokeColor=default;align=center;verticalAlign=middle;fontFamily=Helvetica;fontSize=11;fontColor=default;labelBackgroundColor=default;edgeStyle=orthogonalEdgeStyle;endFill=1;exitX=0.5;exitY=1;exitDx=0;exitDy=0;" edge="1" parent="1" source="vKtuIFW7AEC2cDn7nmXN-30">
          <mxGeometry width="50" height="50" relative="1" as="geometry">
            <mxPoint x="720" y="750" as="sourcePoint" />
            <mxPoint x="420" y="400" as="targetPoint" />
            <Array as="points">
              <mxPoint x="559" y="1010" />
              <mxPoint x="770" y="1010" />
              <mxPoint x="770" y="400" />
            </Array>
          </mxGeometry>
        </mxCell>
        <mxCell id="vKtuIFW7AEC2cDn7nmXN-36" value="" style="edgeStyle=orthogonalEdgeStyle;shape=connector;rounded=0;orthogonalLoop=1;jettySize=auto;html=1;strokeColor=default;align=center;verticalAlign=middle;fontFamily=Helvetica;fontSize=11;fontColor=default;labelBackgroundColor=default;endArrow=none;endFill=0;" edge="1" parent="1" source="vKtuIFW7AEC2cDn7nmXN-34" target="vKtuIFW7AEC2cDn7nmXN-35">
          <mxGeometry relative="1" as="geometry" />
        </mxCell>
        <mxCell id="vKtuIFW7AEC2cDn7nmXN-34" value="&quot;________&quot;" style="shape=document;whiteSpace=wrap;html=1;boundedLbl=1;fontFamily=Helvetica;fontSize=11;fontColor=default;labelBackgroundColor=default;" vertex="1" parent="1">
          <mxGeometry x="355" y="990" width="110" height="60" as="geometry" />
        </mxCell>
        <mxCell id="vKtuIFW7AEC2cDn7nmXN-35" value="кінець" style="rounded=1;whiteSpace=wrap;html=1;fontFamily=Helvetica;fontSize=11;fontColor=default;labelBackgroundColor=default;" vertex="1" parent="1">
          <mxGeometry x="365" y="1080" width="90" height="40" as="geometry" />
        </mxCell>
      </root>
    </mxGraphModel>
  </diagram>
</mxfile>
